<svg xmlns="http://www.w3.org/2000/svg" width="350" height="80" fill="none"><path fill="#1E1E1E" d="M0 0h350v80H0z"/><path fill="#fff" d="M359-7H-9v89h368z"/><path fill="#F9FAFB" stroke="#000" d="M91.07 19.5c8.591 0 15.568 7.06 15.568 15.78 0 8.721-6.977 15.78-15.569 15.78S75.5 44.002 75.5 35.28 82.477 19.5 91.07 19.5Z"/><path fill="#000" d="M99.103 35.28c0 4.496-3.597 8.14-8.034 8.14-4.437 0-8.035-3.644-8.035-8.14 0-4.495 3.598-8.14 8.035-8.14s8.034 3.645 8.034 8.14Z"/><path fill="#F9FAFB" stroke="#000" d="M258.069 17.149c8.592 0 15.569 7.059 15.569 15.78s-6.977 15.78-15.569 15.78S242.5 41.65 242.5 32.93s6.977-15.78 15.569-15.78Z"/><path fill="#000" d="M266.103 32.929c0 4.496-3.597 8.14-8.034 8.14-4.437 0-8.035-3.644-8.035-8.14s3.598-8.14 8.035-8.14 8.034 3.644 8.034 8.14Z"/><path fill="#F9FAFB" stroke="#000" d="M294.069 17.5c8.592 0 15.569 7.06 15.569 15.78 0 8.721-6.977 15.78-15.569 15.78S278.5 42.002 278.5 33.28s6.977-15.78 15.569-15.78Z"/><path fill="#000" d="M302.103 33.28c0 4.496-3.597 8.14-8.034 8.14-4.437 0-8.035-3.644-8.035-8.14 0-4.495 3.598-8.14 8.035-8.14s8.034 3.645 8.034 8.14Z"/><path fill="#F9FAFB" stroke="#000" d="M125.069 19.184c8.592 0 15.569 7.059 15.569 15.78s-6.977 15.78-15.569 15.78-15.569-7.059-15.569-15.78 6.977-15.78 15.569-15.78Z"/><path fill="#000" d="M133.103 34.964c0 4.496-3.597 8.14-8.034 8.14-4.437 0-8.035-3.644-8.035-8.14s3.598-8.14 8.035-8.14 8.034 3.644 8.034 8.14Z"/><path fill="#EDC479" fill-opacity=".6" stroke="#000" stroke-linecap="round" d="M137.121.5a7.5 7.5 0 0 1 7.5 7.5v27.473l-.012.4a7.5 7.5 0 0 1-14.978 0l-.01-.413V8a7.5 7.5 0 0 1 7.5-7.5Z"/><path fill="#F9FAFB" stroke="#000" d="M329.069 17.5c8.592 0 15.569 7.06 15.569 15.78 0 8.721-6.977 15.78-15.569 15.78S313.5 42.002 313.5 33.28s6.977-15.78 15.569-15.78Z"/><path fill="#000" d="M337.103 33.28c0 4.496-3.597 8.14-8.034 8.14-4.437 0-8.035-3.644-8.035-8.14 0-4.495 3.598-8.14 8.035-8.14s8.034 3.645 8.034 8.14Z"/><path fill="#EDC479" fill-opacity=".6" stroke="#000" stroke-linecap="round" d="M341.121.5a7.5 7.5 0 0 1 7.5 7.5v27.473l-.012.4a7.5 7.5 0 0 1-14.978 0l-.01-.413V8a7.5 7.5 0 0 1 7.5-7.5Z"/><path fill="#F9FAFB" stroke="#000" d="M21.07 19.184c8.591 0 15.568 7.059 15.568 15.78s-6.977 15.78-15.569 15.78S5.5 43.685 5.5 34.964s6.977-15.78 15.57-15.78Z"/><path fill="#000" d="M29.103 34.964c0 4.496-3.597 8.14-8.034 8.14-4.437 0-8.035-3.644-8.035-8.14s3.598-8.14 8.035-8.14 8.034 3.644 8.034 8.14Z"/><path fill="#EDC479" stroke="#000" d="M34.376 8.5c2.075 0 3.768 1.706 3.768 3.824 0 2.119-1.693 3.824-3.768 3.824-2.075 0-3.768-1.705-3.768-3.824 0-2.118 1.693-3.824 3.768-3.824Z"/><g filter="url(#a)"><path fill="#EDC479" d="M27.19 54.81a6.825 6.825 0 0 1 9.4.186 6.826 6.826 0 0 1 .066 9.652l-1.147 1.162-1.192.906-.053.04-.052.038-1.209.883-1.651.869-.412.217-2.051.744-.007.003-.005.001-1.21.436-.124.046-1.335.423-.393.125-.405.076-1.495.283-2.808.286-2.359-.288-.13-.021-1.908-.31-2.018-.64-1.456-.63-.129-.062-1.21-.586-.104-.05-1.755-.924-1.264-.922-.052-.04-1.193-.907-1.149-1.163-.24-.256a6.826 6.826 0 0 1 .298-9.396 6.824 6.824 0 0 1 9.398-.176l.253.244.465.471.36.273.355.26.672.354.977.472.55.238.403.128.776.126.583.071.71-.073.519-.097.685-.218 1.09-.394 1.164-.422.354-.186.355-.26.366-.278.465-.47.253-.244Z"/><path stroke="#000" stroke-linecap="round" d="M27.529 55.18a6.325 6.325 0 0 1 8.71.172 6.326 6.326 0 0 1 .283 8.707l-.222.237-1.124 1.138-1.16.882-.05.038-.052.038-1.177.859-1.618.852h-.001l-.38.202-1.996.723-.01.004-.025.008-1.21.437-.002.001-.116.041-1.323.42-.369.117-.37.07-1.476.279-2.731.278-2.285-.28-.127-.02h-.002l-1.873-.303-1.955-.621-1.427-.619-.119-.056-1.208-.585h0l-.105-.05-1.711-.902-1.22-.892-.052-.039-.002-.001-1.164-.884-1.124-1.14-.225-.239a6.326 6.326 0 0 1 .279-8.705 6.325 6.325 0 0 1 8.474-.369l.235.206.243.235.456.462.025.026.029.021.359.273.007.007.357.259.028.021.033.017.672.354.015.008.978.472.02.009.548.237.023.01.024.009.405.128.035.01.036.006.776.126.02.003.582.072.055.007.056-.006.71-.073.021-.002.02-.004.52-.097.03-.006.029-.01.685-.218.01-.003.008-.003 1.091-.394h.001l1.162-.422.033-.011.03-.016.354-.186.033-.017.029-.022.355-.26.008-.005.366-.279.028-.021.025-.025.464-.471.235-.227v.001Z"/></g><path fill="#F9FAFB" stroke="#000" d="M222.947 17.149c8.592 0 15.569 7.059 15.569 15.78s-6.977 15.78-15.569 15.78-15.569-7.059-15.569-15.78 6.977-15.78 15.569-15.78Z"/><path fill="#000" d="M230.981 32.929c0 4.496-3.597 8.14-8.034 8.14-4.437 0-8.035-3.644-8.035-8.14s3.598-8.14 8.035-8.14 8.034 3.644 8.034 8.14Z"/><path fill="#EDC479" stroke="#000" d="M236.254 6.465c2.075 0 3.768 1.706 3.768 3.824s-1.693 3.824-3.768 3.824c-2.075 0-3.768-1.705-3.768-3.824 0-2.118 1.693-3.824 3.768-3.824Z"/><g filter="url(#b)"><path fill="#EDC479" d="M229.191 54.81a6.824 6.824 0 0 1 9.398.186 6.826 6.826 0 0 1 .067 9.652l-1.147 1.162-1.192.906-.053.04-.052.038-1.209.883-1.651.869-.412.217-2.051.744-.007.003-.005.001-1.21.436-.124.046-1.335.423-.393.125-.405.076-1.495.283-2.808.286-2.359-.288-.131-.021-1.907-.31-2.018-.64-1.456-.63-.129-.062-1.21-.586-.105-.05-1.754-.924-1.264-.922-.052-.04-1.193-.907-1.149-1.163-.24-.256a6.825 6.825 0 0 1 .298-9.396 6.825 6.825 0 0 1 9.399-.176l.252.244.465.471.359.273.356.26.672.354.977.472.549.238.404.128.776.126.583.071.71-.073.519-.097.685-.218 1.091-.394 1.163-.422.354-.186.355-.26.366-.278.465-.47.253-.244Z"/><path stroke="#000" stroke-linecap="round" d="M229.529 55.18a6.324 6.324 0 0 1 8.709.172 6.326 6.326 0 0 1 .284 8.707l-.222.237-1.124 1.138-1.16.882-.049.038-.053.038-1.177.859-1.618.852h-.001l-.381.202-1.995.723-.011.004-.024.008-1.21.437-.002.001-.116.041-1.323.42-.368.117-.371.07-1.476.279-2.731.278-2.285-.28-.127-.02h-.002l-1.873-.303-1.955-.621-1.427-.619-.118-.056-1.209-.585h-.001l-.104-.05-1.711-.902-1.22-.892-.052-.039-.002-.001-1.164-.884-1.124-1.14-.225-.239a6.326 6.326 0 0 1 .279-8.705 6.325 6.325 0 0 1 8.474-.369l.235.206.243.235.456.462.025.026.029.021.359.273.007.007.357.259.029.021.032.017.672.354.015.008.978.472.019.009.549.237.023.01.024.009.405.128.035.01.036.006.776.126.019.003.583.072.055.007.056-.006.71-.073.021-.002.02-.004.52-.097.029-.006.03-.01.685-.218.009-.003.009-.003 1.091-.394h.001l1.162-.422.033-.011.03-.016.354-.186.033-.017.029-.022.355-.26.008-.005.366-.279.028-.021.025-.025.464-.471.235-.227.001.001Z"/></g><path fill="#F9FAFB" stroke="#000" d="M56.07 19.184c8.591 0 15.568 7.059 15.568 15.78s-6.977 15.78-15.569 15.78S40.5 43.685 40.5 34.964s6.977-15.78 15.57-15.78Z"/><path fill="#F9FAFB" stroke="#000" stroke-linecap="round" d="M155.5 14.236a7.5 7.5 0 0 1 7.5 7.5v24.42a7.5 7.5 0 0 1-15 0v-24.42a7.5 7.5 0 0 1 7.5-7.5ZM195.981 14.264h.001l2.358.011v.002l.411.01a7.5 7.5 0 0 1 0 14.979l-.409.01-2.68-.012h.001l-.549-.006-.424-.004-.073.417c-.837 4.758-2.237 11.648-2.446 13.292-.165 1.294-.528 3.22-1.4 5.049-.686 1.441-3.114 5.644-8.414 5.644H174.5a7.5 7.5 0 0 1-7.5-7.5l.01-.385a7.5 7.5 0 0 1 7.49-7.115h3.19l.075-.41c.647-3.574 1.744-9.202 2.184-11.76.154-.896.257-1.65.372-2.446.098-.675.241-1.676.475-2.603.212-.842.728-2.65 2.188-4.276 1.784-1.984 4.078-2.76 6.073-2.873 1.402-.078 4.343-.046 6.924-.024Z"/><g filter="url(#c)"><path fill="#000" d="M48.87 34a1 1 0 0 1 .966-1.256h12.921a1 1 0 0 1 .958 1.289l-1.557 5.162a1 1 0 0 1-.967.711l-10.019-.09a1 1 0 0 1-.957-.744L48.87 34Z"/></g><path fill="#000" d="M53.058 32.93v-2.14c0-.78.633-1.414 1.413-1.414h3.109a1.5 1.5 0 0 1 1.5 1.5v2.053a.5.5 0 0 1-1 0v-2.053a.5.5 0 0 0-.5-.5H54.47a.413.413 0 0 0-.413.413v2.14a.5.5 0 0 1-1 0Z"/><defs><filter id="a" width="42.211" height="26.161" x=".41" y="53.026" color-interpolation-filters="sRGB" filterUnits="userSpaceOnUse"><feFlood flood-opacity="0" result="BackgroundImageFix"/><feColorMatrix in="SourceAlpha" result="hardAlpha" values="0 0 0 0 0 0 0 0 0 0 0 0 0 0 0 0 0 0 127 0"/><feOffset dy="4"/><feGaussianBlur stdDeviation="2"/><feComposite in2="hardAlpha" operator="out"/><feColorMatrix values="0 0 0 0 0 0 0 0 0 0 0 0 0 0 0 0 0 0 0.25 0"/><feBlend in2="BackgroundImageFix" result="effect1_dropShadow_0_1"/><feBlend in="SourceGraphic" in2="effect1_dropShadow_0_1" result="shape"/></filter><filter id="b" width="42.211" height="26.161" x="202.41" y="53.026" color-interpolation-filters="sRGB" filterUnits="userSpaceOnUse"><feFlood flood-opacity="0" result="BackgroundImageFix"/><feColorMatrix in="SourceAlpha" result="hardAlpha" values="0 0 0 0 0 0 0 0 0 0 0 0 0 0 0 0 0 0 127 0"/><feOffset dy="4"/><feGaussianBlur stdDeviation="2"/><feComposite in2="hardAlpha" operator="out"/><feColorMatrix values="0 0 0 0 0 0 0 0 0 0 0 0 0 0 0 0 0 0 0.25 0"/><feBlend in2="BackgroundImageFix" result="effect1_dropShadow_0_1"/><feBlend in="SourceGraphic" in2="effect1_dropShadow_0_1" result="shape"/></filter><filter id="c" width="22.922" height="15.162" x="44.836" y="32.744" color-interpolation-filters="sRGB" filterUnits="userSpaceOnUse"><feFlood flood-opacity="0" result="BackgroundImageFix"/><feColorMatrix in="SourceAlpha" result="hardAlpha" values="0 0 0 0 0 0 0 0 0 0 0 0 0 0 0 0 0 0 127 0"/><feOffset dy="4"/><feGaussianBlur stdDeviation="2"/><feComposite in2="hardAlpha" operator="out"/><feColorMatrix values="0 0 0 0 0 0 0 0 0 0 0 0 0 0 0 0 0 0 0.25 0"/><feBlend in2="BackgroundImageFix" result="effect1_dropShadow_0_1"/><feBlend in="SourceGraphic" in2="effect1_dropShadow_0_1" result="shape"/></filter></defs></svg>